<svg width="14" height="14" viewBox="0 0 14 14" fill="none" xmlns="http://www.w3.org/2000/svg">
<g clip-path="url(#clip0_321_47)">
<path d="M2.7998 11.2V14H-0.000195026V11.2H2.7998Z" fill="white"/>
<path d="M2.7998 11.2V14H-0.000195026V11.2H2.7998Z" fill="white"/>
<path d="M8.40039 5.6V8.4H5.60039V5.6H8.40039Z" fill="white"/>
<path d="M8.40039 5.6V8.4H5.60039V5.6H8.40039Z" fill="white"/>
<path d="M5.59961 8.4V11.2H2.79961V8.4H5.59961Z" fill="white"/>
<path d="M5.59961 8.4V11.2H2.79961V8.4H5.59961Z" fill="white"/>
<path d="M11.2002 2.8V5.6H8.4002V2.8H11.2002Z" fill="white"/>
<path d="M11.2002 2.8V5.6H8.4002V2.8H11.2002Z" fill="white"/>
<path d="M8.40039 3.33786e-06V2.8H5.60039V3.33786e-06H8.40039Z" fill="white"/>
<path d="M8.40039 3.33786e-06V2.8H5.60039V3.33786e-06H8.40039Z" fill="white"/>
<path d="M11.2002 3.33786e-06V2.8H8.4002V3.33786e-06H11.2002Z" fill="white"/>
<path d="M11.2002 3.33786e-06V2.8H8.4002V3.33786e-06H11.2002Z" fill="white"/>
<path d="M14 3.33786e-06V2.8H11.2V3.33786e-06H14Z" fill="white"/>
<path d="M14 3.33786e-06V2.8H11.2V3.33786e-06H14Z" fill="white"/>
<path d="M14 2.8V5.6H11.2V2.8H14Z" fill="white"/>
<path d="M14 2.8V5.6H11.2V2.8H14Z" fill="white"/>
<path d="M14 5.6V8.4H11.2V5.6H14Z" fill="white"/>
<path d="M14 5.6V8.4H11.2V5.6H14Z" fill="white"/>
</g>
<defs>
<clipPath id="clip0_321_47">
<rect width="14" height="14" fill="white" transform="matrix(1 0 0 -1 0 14)"/>
</clipPath>
</defs>
</svg>
