<svg width="533" height="554" viewBox="0 0 533 554" fill="none" xmlns="http://www.w3.org/2000/svg">
<g id="Group 3">
<g id="LightGray">
<g id="Group 2">
<path id="Vector" d="M249.169 0.463928C247.914 0.790039 241.483 1.93146 235.052 2.90979C212.308 6.82318 187.526 17.7479 166.508 33.2383C161.175 37.3147 130.118 68.1324 97.4932 102.048C50.9083 150.313 36.1643 166.618 29.1059 177.543C-3.36231 228.417 -9.00897 290.378 13.8913 347.285C24.5572 374.026 33.3409 384.951 96.8658 450.989C129.334 484.905 160.391 515.885 166.037 519.962C227.68 565.292 305.008 565.292 366.493 520.288C371.826 516.212 403.04 485.231 435.665 451.315C499.66 384.951 508.287 374.189 518.953 347.285C528.835 322.827 531.972 306.521 532.129 278.475C532.285 252.712 531.031 243.092 524.913 223.036C520.208 207.383 509.071 184.718 499.817 171.836C488.838 156.509 379.512 43.0217 366.807 33.7275C346.573 18.8893 324.614 8.61676 301.714 3.56201C291.675 1.27924 254.658 -1.00354 249.169 0.463928ZM339.358 92.4278C351.749 96.3412 365.866 103.516 376.218 111.342C380.14 114.44 402.099 136.453 424.999 160.585C457.31 194.338 468.133 206.893 473.152 215.698C494.171 253.201 494.171 300.325 473.152 337.991C468.133 346.959 457.467 359.188 421.862 396.039C372.768 447.076 368.219 450.663 342.495 459.957C329.79 464.523 326.496 465.012 308.772 465.175C281.166 465.175 263.913 460.12 242.895 445.608C229.092 435.988 148.313 351.035 141.255 338.643C118.982 299.02 120.237 248.31 144.705 210.318C154.273 195.479 235.679 111.668 247.914 104.331C258.109 97.9717 274.892 91.6125 286.97 89.4928C299.675 87.0469 326.653 88.6775 339.358 92.4278Z" fill="#044AB3"/>
<path id="Vector_2" d="M286.656 125.854C272.383 129.278 255.443 138.573 245.247 148.356L235.836 157.487L262.658 185.859C290.264 215.209 298.577 226.786 304.067 243.418C308.458 256.789 310.341 274.725 308.615 288.748C306.733 303.586 305.164 308.967 297.322 324.783C291.832 335.708 286.813 342.067 263.442 367.015L235.836 396.202L245.247 405.333C261.089 420.66 284.774 430.118 307.204 430.118C327.437 430.118 350.965 421.476 365.239 409.083C382.335 394.082 435.351 336.686 440.998 327.066C457.154 299.346 458.722 264.452 445.233 234.613C438.959 220.753 438.645 220.427 402.412 182.435C360.69 138.736 357.553 136.127 335.437 128.137C324.457 124.061 298.89 122.919 286.656 125.854Z" fill="#044AB3"/>
</g>
</g>
</g>
</svg>
